<svg width="24" height="24" viewBox="0 0 24 24" fill="none" xmlns="http://www.w3.org/2000/svg">
<g clip-path="url(#clip0_130_1694)">
<path d="M8.32042 0.656471C5.89414 1.49817 3.80173 3.09574 2.35051 5.21452C0.899297 7.3333 0.165778 9.86162 0.257695 12.4281C0.349613 14.9946 1.26212 17.4639 2.86119 19.4735C4.46026 21.483 6.6616 22.9268 9.14188 23.5928C11.1527 24.1116 13.2594 24.1344 15.281 23.6592C17.1123 23.2478 18.8054 22.3679 20.1946 21.1056C21.6403 19.7517 22.6897 18.0294 23.23 16.1238C23.8172 14.0515 23.9217 11.8722 23.5354 9.75321H12.2437V14.4372H18.7831C18.6524 15.1843 18.3723 15.8973 17.9596 16.5336C17.547 17.1699 17.0101 17.7164 16.3813 18.1404C15.5828 18.6686 14.6826 19.0241 13.7386 19.1838C12.7918 19.3599 11.8207 19.3599 10.874 19.1838C9.91437 18.9854 9.00661 18.5894 8.20849 18.0209C6.92631 17.1133 5.96357 15.8239 5.45765 14.3367C4.94318 12.8216 4.94318 11.1791 5.45765 9.66404C5.81777 8.60206 6.41311 7.63513 7.19921 6.83542C8.09882 5.90345 9.23774 5.23728 10.491 4.90998C11.7443 4.58269 13.0635 4.60692 14.304 4.98003C15.273 5.27748 16.1591 5.7972 16.8917 6.49773C17.629 5.76418 18.3651 5.02872 19.0999 4.29137C19.4793 3.89487 19.8929 3.51734 20.2666 3.11136C19.1484 2.07074 17.8358 1.261 16.4041 0.728562C13.7969 -0.218125 10.9441 -0.243567 8.32042 0.656471Z" fill="white"/>
<path d="M8.32086 0.657393C10.9443 -0.243256 13.7971 -0.218485 16.4045 0.727587C17.8365 1.26365 19.1485 2.07728 20.2652 3.12177C19.8858 3.52775 19.4855 3.90718 19.0985 4.30178C18.3624 5.0366 17.6269 5.76889 16.8921 6.49866C16.1595 5.79812 15.2734 5.27841 14.3044 4.98095C13.0644 4.60654 11.7452 4.5809 10.4916 4.90686C9.23797 5.23281 8.09834 5.89776 7.19775 6.82876C6.41165 7.62847 5.81631 8.5954 5.45619 9.65738L1.52344 6.61249C2.93112 3.82097 5.36844 1.68568 8.32086 0.657393Z" fill="#E33629"/>
<path d="M0.477426 9.62923C0.688807 8.58162 1.03974 7.5671 1.52085 6.61279L5.4536 9.66528C4.93912 11.1803 4.93912 12.8228 5.4536 14.3379C4.14331 15.3497 2.8324 16.3666 1.52085 17.3885C0.316456 14.9911 -0.0508626 12.2596 0.477426 9.62923Z" fill="#F8BD00"/>
<path d="M12.243 9.75146H23.5347C23.921 11.8704 23.8165 14.0497 23.2293 16.122C22.6891 18.0277 21.6397 19.75 20.1939 21.1039C18.9247 20.1136 17.6499 19.1309 16.3807 18.1406C17.0099 17.7161 17.547 17.169 17.9597 16.5321C18.3724 15.8951 18.6522 15.1813 18.7824 14.4336H12.243C12.2411 12.8741 12.243 11.3128 12.243 9.75146Z" fill="#587DBD"/>
<path d="M1.52344 17.3865C2.83499 16.3747 4.1459 15.3579 5.45619 14.3359C5.96312 15.8237 6.92723 17.1131 8.21082 18.0202C9.01143 18.586 9.92114 18.9788 10.882 19.1736C11.8288 19.3497 12.7999 19.3497 13.7466 19.1736C14.6906 19.0138 15.5908 18.6584 16.3893 18.1302C17.6585 19.1205 18.9334 20.1032 20.2026 21.0935C18.8137 22.3565 17.1205 23.237 15.289 23.649C13.2674 24.1242 11.1607 24.1014 9.1499 23.5826C7.55954 23.1579 6.07404 22.4094 4.7865 21.3838C3.42372 20.3018 2.31066 18.9383 1.52344 17.3865Z" fill="#319F43"/>
</g>
<defs>
<clipPath id="clip0_130_1694">
<rect width="24" height="24" fill="white"/>
</clipPath>
</defs>
</svg>
