<svg width="32" height="22" viewBox="0 0 32 22" fill="none" xmlns="http://www.w3.org/2000/svg">
<g clip-path="url(#clip0_130_1683)">
<path d="M31.5566 -0.00537109V21.3276H12.2227V-0.00537109H31.5566ZM26.0566 11.3081C22.41 14.4481 18.643 17.1079 13.4297 17.1079C13.0365 17.1079 12.6168 17.0745 12.2236 17.0278V18.6548C12.6435 18.7014 13.0836 18.7212 13.5234 18.7212C18.1033 18.7211 26.1827 16.3884 29.6494 13.4819C29.1361 12.9686 26.6633 11.7948 26.0566 11.3081ZM12.7832 2.99561L12.2236 3.02881V4.56201C12.4102 4.55534 12.5967 4.54151 12.7832 4.5415C17.9431 4.37484 21.3232 8.98193 21.3232 8.98193C21.3076 9.00365 17.6682 14.0481 13.7568 14.0483C13.2369 14.0483 12.7102 13.968 12.2236 13.8081V15.2817C12.6968 15.3617 13.1902 15.4087 13.6768 15.4087C19.2575 15.4085 24.6129 8.90446 24.6367 8.87549C24.6367 8.87549 19.9564 2.74894 12.7832 2.99561ZM13.2695 6.40186C12.9231 6.38856 12.5701 6.41543 12.2236 6.44873V8.08838C14.2298 8.32843 14.6499 9.21511 15.8496 11.228L18.5361 8.96826C18.5132 8.93846 16.5501 6.40186 13.2695 6.40186Z" fill="#77B900"/>
<path d="M12.2202 13.8039V15.2919C7.40763 14.4319 6.07031 9.42128 6.07031 9.42128C6.07031 9.42128 8.38362 6.86397 12.2202 6.44531V8.07263H12.2089C10.1976 7.82863 8.61695 9.71194 8.61695 9.71194C8.61695 9.71194 9.5116 12.8852 12.2202 13.8039Z" fill="#77B900"/>
<path d="M3.67727 9.21096C3.67727 9.21096 6.52524 5.00234 12.2332 4.56102V3.02637C5.90925 3.53769 0.445312 8.88563 0.445312 8.88563C0.445312 8.88563 3.53794 17.8369 12.2218 18.6508V17.0235C5.85125 16.2322 3.67727 9.21096 3.67727 9.21096Z" fill="#77B900"/>
</g>
<defs>
<clipPath id="clip0_130_1683">
<rect width="31.4074" height="21.3333" fill="white"/>
</clipPath>
</defs>
</svg>
