<svg width="24" height="24" viewBox="0 0 24 24" fill="none" xmlns="http://www.w3.org/2000/svg">
<rect width="24" height="24" rx="1.48148" fill="#3030EA"/>
<path d="M22.37 10.573C22.37 5.04428 17.8611 0.890574 12.268 0.890574L12.2699 0.889648C6.67687 0.889648 2.16797 5.04335 2.16797 10.5878C2.16797 16.1471 6.67687 20.2859 12.2699 20.2859C13.2233 20.2859 14.1449 20.1628 15.0174 19.9304L16.116 22.6332C16.2295 22.9267 16.4556 23.1119 16.8596 23.1119H18.6047C19.0251 23.1119 19.333 22.8489 19.1377 22.3396L17.7149 18.8035C20.5114 17.1202 22.37 14.1396 22.37 10.573ZM16.6663 16.2258L15.3887 13.0591C15.2752 12.7961 15.0492 12.5498 14.5643 12.5498H12.8991C12.4787 12.5498 12.1555 12.8128 12.3498 13.3221L14.0314 17.4758C13.4552 17.6146 12.8629 17.6821 12.269 17.6767C8.17951 17.6767 5.27042 14.6035 5.27042 10.5887C5.27042 6.57391 8.17951 3.50076 12.269 3.50076C16.3584 3.50076 19.2675 6.57391 19.2675 10.5887C19.2675 12.9359 18.2824 14.9434 16.6663 16.2258Z" fill="white"/>
</svg>
