<svg width="1256" height="122" viewBox="0 0 1256 122" fill="none" xmlns="http://www.w3.org/2000/svg">
    <path
        d="M39.6094 75.1562H68.8281L54.4531 29.8438L39.6094 75.1562ZM41.0938 3.51562H68.2812L109.062 118.672H82.9688L75.5469 95H33.125L25.1562 118.672H0L41.0938 3.51562ZM149.35 3.51562H173.413V97.9688H230.444V118.672H149.35V3.51562ZM357.919 23.9062H296.981V48.3594H352.919V68.3594H296.981V97.9688H360.731V118.672H273.466V3.51562H357.919V23.9062ZM423.441 118.672H395.472L432.503 60L397.269 3.51562H426.019L446.566 40.9375L467.659 3.51562H495.472L460.237 59.0625L497.659 118.672H468.441L446.566 79.4531L423.441 118.672ZM742.794 62.0312C742.794 41.9271 748.184 26.4323 758.966 15.5469C768.341 6.06771 780.268 1.32812 794.747 1.32812C814.122 1.32812 828.289 7.68229 837.247 20.3906C842.195 27.526 844.851 34.6875 845.216 41.875H821.153C819.591 36.3542 817.585 32.1875 815.138 29.375C810.763 24.375 804.278 21.875 795.684 21.875C786.934 21.875 780.033 25.4167 774.981 32.5C769.929 39.5312 767.403 49.5052 767.403 62.4219C767.403 75.3385 770.059 85.026 775.372 91.4844C780.736 97.8906 787.533 101.094 795.763 101.094C804.2 101.094 810.632 98.3333 815.059 92.8125C817.507 89.8438 819.539 85.3906 821.153 79.4531H844.981C842.898 92.0052 837.559 102.214 828.966 110.078C820.424 117.943 809.46 121.875 796.075 121.875C779.513 121.875 766.492 116.562 757.013 105.938C747.533 95.2604 742.794 80.625 742.794 62.0312ZM888.862 118.672V3.51562H912.691V47.4219H957.691V3.51562H981.597V118.672H957.691V67.2656H912.691V118.672H888.862ZM1115.4 23.9062H1054.46V48.3594H1110.4V68.3594H1054.46V97.9688H1118.21V118.672H1030.95V3.51562H1115.4V23.9062ZM1162.17 3.51562H1187.41L1233.27 83.9062V3.51562H1255.69V118.672H1231.62L1184.59 36.875V118.672H1162.17V3.51562Z"
        fill="#F6F7F9" fill-opacity="0.7" />
</svg>
    