<svg width="28" height="28" viewBox="0 0 28 28" fill="none" xmlns="http://www.w3.org/2000/svg">
<rect x="0.5" y="0.5" width="27" height="27" rx="13.5" fill="#F6F7F9"/>
<rect x="0.5" y="0.5" width="27" height="27" rx="13.5" stroke="#EEEEEE"/>
<path d="M17 8C15.3431 8 14 9.34314 14 11C14 9.34314 12.6569 8 11 8C9.34314 8 8 9.34314 8 11V17C8 18.6569 9.34314 20 11 20C12.6569 20 14 18.6569 14 17C14 18.6569 15.3431 20 17 20C18.6568 20 20 18.6569 20 17V11C20 9.34314 18.6568 8 17 8Z" fill="#D25F3D"/>
</svg>
