<svg width="20" height="20" viewBox="0 0 20 20" fill="none" xmlns="http://www.w3.org/2000/svg">
    <path
        d="M9.99902 2.38037C10.9995 2.38037 11.9907 2.57758 12.915 2.96045C13.8394 3.34334 14.6792 3.9053 15.3867 4.61279C16.0941 5.32025 16.6552 6.16016 17.0381 7.08447C17.4209 8.00871 17.6181 8.99913 17.6182 9.99951C17.6182 13.2213 15.6229 15.97 12.7969 17.0962V15.2163C12.7969 14.8413 12.7424 14.5016 12.6475 14.2017C13.3156 14.0403 13.9915 13.771 14.5654 13.2935C15.4859 12.5275 16.0302 11.3327 16.0303 9.5835C16.0303 8.63502 15.7461 7.82896 15.249 7.16357C15.364 6.66185 15.4346 5.83309 15.0361 4.85498L14.9102 4.54639L14.5928 4.44482L14.4053 5.02783C14.5766 4.4945 14.5911 4.4489 14.5918 4.44482L14.5898 4.44385L14.5811 4.44092C14.5772 4.43974 14.5726 4.4392 14.5684 4.43799C14.5596 4.4355 14.5502 4.43274 14.54 4.43018C14.5194 4.42499 14.4954 4.41941 14.4688 4.41455C14.4155 4.40487 14.3508 4.39671 14.2744 4.39307C14.1205 4.38576 13.9225 4.39706 13.6797 4.44775C13.2479 4.53795 12.6786 4.75239 11.9561 5.20557C11.3227 5.05811 10.6556 4.98584 9.99902 4.98584C9.34233 4.98586 8.67543 5.05804 8.04199 5.20557C7.3197 4.7526 6.751 4.53793 6.31934 4.44775C6.07642 4.39701 5.87863 4.38575 5.72461 4.39307C5.64788 4.39671 5.58267 4.40483 5.5293 4.41455C5.50286 4.41937 5.47951 4.42503 5.45898 4.43018C5.44866 4.43277 5.43849 4.43547 5.42969 4.43799C5.4254 4.43922 5.42092 4.43973 5.41699 4.44092L5.4082 4.44385L5.40723 4.44482C5.40804 4.44949 5.42407 4.50244 5.62402 5.12451L5.40625 4.44482L5.08887 4.54639L4.96289 4.85498C4.56468 5.8324 4.63422 6.66077 4.74902 7.1626C4.25185 7.82804 3.96875 8.63487 3.96875 9.5835C3.9688 10.8977 4.27548 11.9006 4.81836 12.644C4.66018 12.5905 4.48721 12.5508 4.29883 12.5376L4.28125 12.5356H4.19727C4.16357 12.5365 4.11621 12.539 4.0625 12.5444C3.98329 12.5524 3.78041 12.5765 3.59082 12.6812C3.48885 12.7375 3.3213 12.8549 3.22363 13.0737C3.18202 13.1671 3.1609 13.2601 3.15527 13.3491C2.65954 12.3377 2.37988 11.2009 2.37988 9.99951C2.37997 7.97893 3.18353 6.04156 4.6123 4.61279C5.3198 3.9053 6.1596 3.34334 7.08398 2.96045C8.00816 2.5777 8.99872 2.38041 9.99902 2.38037ZM6.7168 16.8823C6.87028 16.8978 7.03186 16.9031 7.20215 16.8979V17.0942C7.03756 17.0288 6.87556 16.9586 6.7168 16.8823ZM3.78906 14.3403L3.83398 14.3706L3.86035 14.3833C3.86279 14.3848 3.86803 14.3873 3.875 14.3921C3.89762 14.4078 3.9431 14.4429 4.00195 14.5024C4.11494 14.6168 4.28544 14.8337 4.43848 15.2085C4.16308 14.914 3.91006 14.5983 3.68359 14.2632C3.71791 14.2887 3.75261 14.3155 3.78906 14.3403ZM6.16016 13.7788C6.54317 13.9774 6.94723 14.1138 7.34863 14.2114C7.34469 14.2243 7.34168 14.2375 7.33789 14.2505C7.19694 14.2842 7.04326 14.3055 6.89258 14.2925C6.66254 14.2725 6.39675 14.1769 6.16016 13.7788Z"
        fill="#888888" stroke="#888888" stroke-width="1.42857" />
</svg>